<svg class="img-fluid" id="outputsvg" xmlns="http://www.w3.org/2000/svg" style="transform: matrix(1.11388, 0, 0, 1.11388, 0, 0); transform-origin: 30% 30%; cursor: move; transition: transform 200ms ease-in-out 0s;" width="1024" height="1024" viewBox="0 0 10240 10240"><g id="l6LSLFWKJHCYteCm54g6QrE" fill="rgb(247,247,255)" stroke="rgb(18,17,16)" stroke-width="10" style="transform: none;"><g style="transform: none;"><path id="p1BeMdTV2F" d="M4620 9349 c-69 -4 -145 -13 -170 -19 -25 -7 -97 -18 -160 -26 -63 -8 -142 -23 -175 -33 -33 -11 -93 -24 -133 -31 -41 -6 -86 -17 -102 -25 -15 -8 -59 -21 -98 -29 -39 -8 -81 -21 -94 -30 -13 -8 -41 -18 -63 -21 -22 -4 -60 -17 -85 -29 -25 -13 -67 -28 -93 -35 -27 -6 -61 -20 -75 -30 -15 -11 -43 -22 -63 -25 -21 -4 -42 -13 -49 -21 -6 -8 -33 -21 -60 -30 -27 -9 -54 -23 -60 -30 -7 -8 -31 -20 -54 -26 -22 -6 -46 -17 -52 -24 -6 -8 -31 -24 -55 -35 -79 -38 -127 -65 -145 -81 -11 -9 -36 -22 -56 -30 -21 -7 -38 -18 -38 -24 0 -7 -17 -19 -37 -28 -43 -19 -98 -56 -129 -86 -12 -12 -26 -21 -32 -21 -5 0 -28 -15 -51 -32 -22 -18 -59 -46 -81 -63 -22 -16 -54 -42 -72 -58 -18 -15 -44 -36 -58 -48 -14 -11 -47 -40 -75 -65 -27 -26 -65 -58 -84 -73 -55 -42 -297 -289 -328 -334 -15 -23 -38 -50 -50 -60 -13 -10 -23 -25 -23 -32 0 -8 -9 -17 -20 -20 -11 -3 -20 -10 -20 -15 0 -4 -15 -26 -32 -49 -18 -22 -46 -59 -63 -82 -16 -22 -40 -52 -52 -65 -12 -13 -24 -33 -28 -44 -4 -11 -17 -27 -30 -36 -13 -9 -27 -29 -30 -45 -4 -16 -14 -35 -24 -41 -9 -7 -23 -29 -31 -48 -7 -19 -27 -55 -44 -79 -57 -80 -66 -96 -97 -161 -17 -36 -42 -77 -54 -92 -13 -15 -31 -50 -40 -78 -12 -36 -22 -50 -35 -50 -15 0 -22 -17 -40 -92 -14 -62 -31 -107 -51 -135 -16 -23 -29 -48 -29 -56 0 -8 -18 -68 -40 -135 -22 -66 -40 -132 -40 -147 0 -35 -17 -65 -34 -59 -17 6 -26 -25 -26 -91 0 -47 -29 -202 -64 -340 -8 -33 -27 -154 -42 -270 -24 -184 -28 -243 -27 -470 1 -265 23 -538 58 -695 7 -36 26 -135 40 -220 15 -85 33 -166 40 -180 7 -14 19 -52 25 -85 7 -33 19 -73 27 -90 8 -16 21 -61 29 -99 7 -38 20 -76 28 -85 9 -9 20 -41 27 -71 6 -30 17 -62 25 -71 8 -8 20 -37 28 -63 8 -26 21 -55 29 -64 8 -10 20 -36 26 -58 6 -23 20 -52 30 -66 11 -13 24 -42 30 -64 6 -23 20 -49 31 -59 11 -10 20 -26 20 -36 0 -10 11 -30 24 -46 13 -15 27 -39 31 -53 4 -14 18 -37 31 -52 12 -15 25 -41 29 -58 4 -17 15 -35 25 -40 10 -5 21 -22 25 -37 3 -15 20 -42 36 -60 16 -19 29 -40 29 -49 0 -8 7 -17 16 -21 8 -3 24 -25 36 -49 11 -24 24 -44 29 -44 5 0 15 -13 24 -30 8 -16 25 -40 38 -54 26 -29 54 -64 103 -126 42 -55 118 -140 202 -229 69 -74 66 -70 127 -129 25 -23 45 -47 45 -52 0 -6 6 -10 12 -10 7 0 24 -11 38 -25 95 -93 223 -199 256 -212 7 -3 16 -13 19 -24 4 -10 13 -19 21 -19 8 0 26 -11 40 -25 14 -14 39 -32 57 -41 18 -10 38 -25 45 -35 7 -11 20 -19 28 -19 8 0 23 -9 34 -20 10 -10 37 -28 60 -40 22 -11 40 -24 40 -29 0 -5 15 -14 33 -20 18 -6 40 -20 49 -31 10 -11 30 -23 45 -26 15 -4 40 -17 55 -30 16 -12 38 -26 50 -29 13 -4 32 -15 43 -25 11 -10 38 -23 60 -30 22 -7 50 -21 63 -31 13 -10 37 -21 55 -25 18 -3 45 -18 61 -31 24 -20 36 -23 65 -18 20 4 39 11 42 17 14 22 16 497 15 3034 -1 2231 -3 2654 -15 2667 -11 14 -34 17 -130 17 -106 0 -118 -2 -141 -23 -26 -22 -26 -22 -17 -2625 6 -1622 6 -2607 0 -2613 -6 -6 -22 0 -43 16 -18 13 -48 29 -67 36 -18 6 -33 15 -33 20 0 6 -20 19 -45 30 -25 11 -45 24 -45 30 0 6 -16 16 -34 24 -19 8 -39 21 -43 29 -4 7 -27 23 -50 35 -24 12 -43 26 -43 31 0 5 -8 11 -19 15 -10 3 -34 19 -52 36 -19 16 -45 38 -59 49 -14 11 -60 49 -102 85 -42 36 -81 65 -86 65 -5 0 -14 11 -20 24 -6 13 -20 27 -31 31 -11 3 -23 14 -26 24 -3 10 -17 23 -30 29 -14 6 -25 19 -25 27 0 8 -11 21 -25 27 -14 6 -25 15 -25 19 0 5 -26 35 -58 69 -81 85 -182 206 -182 218 0 5 -11 17 -25 26 -14 9 -25 23 -25 31 0 8 -11 22 -25 31 -14 9 -25 22 -25 29 0 7 -16 32 -35 55 -19 23 -35 47 -35 54 0 6 -9 17 -20 24 -11 7 -20 18 -20 26 0 7 -13 31 -29 53 -16 22 -32 49 -35 61 -4 12 -16 26 -26 32 -10 5 -21 24 -25 40 -4 17 -18 43 -31 57 -13 14 -24 34 -24 43 0 9 -13 37 -30 61 -16 24 -30 50 -30 58 0 8 -11 33 -24 55 -13 23 -36 77 -52 121 -15 44 -33 85 -40 90 -6 6 -17 34 -24 63 -7 29 -21 61 -31 71 -11 10 -24 43 -30 77 -6 32 -18 72 -26 87 -19 38 -37 105 -68 255 -14 68 -29 132 -35 142 -13 24 -45 328 -61 570 -18 277 3 766 41 940 5 25 15 76 20 114 6 38 17 81 25 95 22 40 44 129 54 211 5 41 20 104 34 140 14 36 29 79 33 95 4 17 17 48 29 70 13 22 31 67 40 100 9 33 25 69 35 80 10 11 32 62 49 112 18 51 38 105 46 120 7 16 18 39 23 53 9 25 9 25 25 -5 9 -17 16 -27 17 -23 0 4 12 49 27 100 26 93 60 153 129 231 19 20 34 44 34 51 0 8 8 21 19 28 10 7 28 31 40 53 35 63 78 123 136 189 11 12 28 34 38 49 9 15 24 27 32 27 8 0 15 6 15 14 0 8 11 23 25 34 14 11 25 23 25 27 0 4 69 75 153 157 199 196 212 208 221 208 4 0 20 12 35 28 16 15 41 37 57 50 16 12 45 35 64 51 19 15 45 34 58 40 13 7 31 19 40 27 54 46 91 72 120 83 17 8 32 18 32 23 0 5 17 16 38 25 20 8 40 21 45 28 4 7 27 21 52 31 25 9 45 21 45 26 0 5 22 18 50 30 28 11 50 24 50 29 0 4 24 15 53 24 28 10 57 23 62 29 6 7 32 20 59 29 27 9 54 23 60 30 6 8 31 19 56 26 25 7 52 20 62 28 9 8 44 21 79 29 35 8 70 21 79 28 8 7 46 20 84 29 38 10 77 23 85 30 9 8 44 19 79 25 34 6 77 18 95 27 18 9 64 20 104 25 39 5 98 18 130 29 32 10 117 24 188 30 72 6 157 18 190 27 44 11 137 17 340 20 270 6 387 0 513 -26 28 -6 112 -17 185 -24 72 -8 152 -21 176 -30 24 -9 77 -21 117 -26 41 -5 84 -16 96 -24 13 -8 52 -20 88 -26 36 -7 88 -23 115 -36 28 -13 62 -24 75 -24 14 0 46 -11 72 -25 26 -14 71 -30 100 -36 29 -6 56 -17 60 -24 4 -7 29 -18 55 -25 27 -7 53 -18 58 -25 6 -7 33 -20 60 -30 28 -9 57 -22 65 -30 8 -7 30 -20 48 -29 30 -16 31 -18 18 -39 -8 -12 -20 -44 -27 -72 -6 -27 -18 -57 -25 -65 -7 -8 -19 -41 -27 -73 -9 -33 -23 -67 -31 -76 -8 -9 -20 -41 -27 -71 -6 -30 -17 -62 -24 -70 -7 -8 -21 -41 -30 -74 -10 -32 -25 -73 -35 -90 -10 -17 -22 -49 -26 -71 -4 -22 -15 -50 -25 -63 -10 -13 -23 -47 -29 -77 -6 -29 -17 -59 -25 -65 -7 -6 -19 -34 -26 -63 -7 -29 -23 -71 -35 -95 -13 -24 -26 -60 -30 -80 -3 -21 -12 -41 -18 -47 -15 -12 -36 -70 -36 -99 0 -12 -8 -33 -17 -46 -10 -14 -27 -52 -39 -85 -12 -33 -37 -100 -56 -150 -44 -113 -55 -142 -86 -235 -13 -41 -36 -97 -49 -124 -14 -27 -34 -74 -43 -105 -32 -98 -76 -214 -102 -266 -55 -110 -96 -278 -75 -312 3 -5 25 -16 49 -23 24 -7 50 -20 59 -27 25 -21 53 -15 131 28 10 5 27 9 38 9 24 0 75 68 103 138 10 26 38 108 62 182 24 74 53 157 64 183 12 27 21 54 21 60 0 7 8 28 19 47 10 19 46 118 81 220 34 102 76 212 92 245 17 33 39 96 49 139 11 44 26 84 33 90 8 6 20 38 26 71 7 33 18 67 25 75 6 8 20 44 29 80 10 36 24 72 32 80 7 9 20 44 28 79 8 35 21 70 29 79 8 10 18 33 22 52 4 19 18 58 30 85 13 28 27 68 31 90 4 22 18 60 31 84 12 24 23 51 23 59 0 8 11 39 25 69 14 29 29 73 34 98 5 25 16 54 24 63 9 10 22 42 28 72 7 30 18 62 24 70 7 8 20 47 30 85 10 39 25 78 33 87 36 42 1 120 -58 133 -16 3 -40 17 -55 31 -14 13 -34 24 -43 24 -9 0 -37 14 -61 30 -24 17 -52 30 -62 30 -10 0 -26 9 -36 19 -10 10 -38 25 -63 32 -25 7 -54 20 -65 30 -11 10 -42 23 -70 30 -27 7 -61 20 -74 30 -12 10 -39 21 -60 25 -20 4 -50 15 -67 25 -17 10 -55 24 -85 30 -30 6 -68 19 -84 30 -17 10 -58 22 -92 28 -34 5 -75 17 -91 25 -17 9 -68 22 -114 30 -46 8 -101 21 -123 29 -22 8 -93 20 -158 27 -65 6 -133 18 -151 25 -71 30 -644 44 -966 24z"></path><path id="p1AVGvSi0A" d="M7370 8613 c-24 -10 -38 -34 -50 -88 -7 -27 -21 -62 -31 -78 -11 -15 -25 -53 -31 -85 -6 -31 -19 -66 -28 -77 -10 -11 -23 -43 -30 -72 -6 -29 -18 -57 -25 -63 -7 -6 -19 -34 -26 -63 -7 -29 -23 -72 -36 -96 -12 -24 -23 -52 -23 -61 0 -9 -11 -38 -24 -63 -14 -25 -28 -63 -32 -84 -4 -21 -17 -56 -30 -78 -12 -22 -26 -58 -30 -80 -3 -22 -12 -47 -19 -55 -7 -8 -20 -39 -29 -69 -9 -30 -23 -62 -31 -71 -8 -9 -20 -43 -27 -76 -6 -32 -19 -69 -29 -82 -10 -13 -21 -37 -24 -55 -4 -18 -19 -57 -35 -87 -15 -30 -42 -98 -59 -150 -38 -119 -96 -261 -109 -269 -6 -3 -15 -33 -21 -65 -6 -33 -17 -66 -24 -75 -8 -9 -24 -47 -37 -86 -12 -38 -29 -79 -36 -90 -8 -11 -14 -29 -14 -40 -1 -11 -9 -38 -20 -60 -11 -22 -19 -47 -20 -56 0 -9 -9 -27 -19 -41 -11 -13 -22 -46 -26 -73 -4 -28 -13 -57 -20 -65 -7 -8 -16 -31 -20 -50 -4 -19 -16 -49 -26 -66 -10 -17 -19 -38 -19 -46 0 -9 -6 -21 -14 -27 -8 -7 -17 -28 -21 -49 -3 -20 -15 -52 -26 -71 -26 -45 -59 -131 -59 -154 0 -11 -9 -30 -20 -44 -11 -15 -28 -51 -36 -82 -9 -31 -27 -78 -40 -104 -13 -27 -24 -56 -24 -65 0 -9 -8 -30 -18 -47 -10 -16 -29 -63 -42 -103 -12 -40 -31 -83 -40 -95 -10 -12 -21 -38 -25 -57 -4 -19 -16 -53 -25 -75 -10 -22 -26 -65 -35 -95 -10 -30 -23 -60 -30 -65 -7 -6 -15 -21 -19 -35 -4 -14 -16 -43 -26 -66 -20 -43 -43 -112 -60 -181 -6 -25 -17 -43 -25 -43 -17 0 -22 -16 -30 -102 -4 -45 -12 -71 -24 -82 -10 -9 -24 -45 -31 -79 -9 -40 -24 -76 -44 -100 -34 -43 -38 -40 -50 44 -4 27 -15 54 -26 64 -28 25 -28 104 0 128 11 9 23 35 26 57 4 22 20 57 36 77 15 20 31 48 34 62 18 77 36 127 56 148 12 13 32 56 44 96 36 118 55 169 89 237 30 60 59 142 82 230 5 20 15 35 23 35 16 0 38 62 39 110 2 44 34 134 80 221 23 43 41 87 41 100 0 23 -40 56 -75 63 -58 10 -210 11 -235 1 -42 -18 -68 -62 -85 -147 -15 -72 -93 -254 -115 -268 -5 -3 -19 16 -31 42 -12 26 -32 63 -44 83 -12 19 -32 76 -44 125 -13 50 -29 97 -37 106 -8 9 -28 56 -43 105 -16 49 -41 117 -55 151 -14 35 -26 71 -26 80 0 10 -14 45 -30 78 -16 33 -30 68 -30 77 0 25 -60 170 -81 197 -11 13 -19 31 -19 40 0 28 -50 172 -64 187 -8 7 -17 32 -21 55 -4 23 -15 49 -25 59 -11 11 -19 41 -24 86 -5 49 -13 75 -28 91 -13 14 -19 30 -15 43 7 28 -7 25 -21 -5 -9 -19 -19 -25 -42 -25 -18 0 -33 6 -36 15 -5 11 -23 15 -78 15 -69 0 -73 -1 -94 -30 -23 -30 -23 -30 -1 -138 12 -59 28 -114 36 -123 7 -8 21 -40 32 -70 10 -30 27 -74 39 -99 11 -25 25 -79 32 -121 11 -67 17 -82 51 -118 22 -22 39 -51 39 -64 0 -12 13 -54 29 -93 16 -38 32 -88 35 -110 4 -22 20 -65 35 -95 70 -135 90 -179 120 -259 18 -47 39 -109 47 -138 8 -29 20 -65 28 -80 7 -15 17 -43 21 -62 4 -19 16 -51 26 -70 10 -19 25 -62 34 -95 9 -33 23 -73 31 -88 8 -16 14 -34 14 -41 0 -7 13 -39 30 -71 33 -64 45 -134 32 -180 -19 -65 -84 -25 -97 60 -4 27 -19 74 -35 105 -15 30 -31 71 -35 90 -10 48 -43 112 -68 131 -20 16 -53 97 -102 247 -13 41 -29 80 -35 88 -16 18 -30 75 -38 154 -5 39 -12 64 -18 63 -23 -4 -47 38 -86 154 -22 65 -46 125 -53 133 -7 8 -16 34 -20 57 -4 23 -15 53 -26 67 -10 13 -19 27 -19 31 0 6 -40 113 -95 255 -19 47 -36 104 -40 128 -4 24 -16 51 -26 61 -25 23 -55 102 -74 192 -20 96 -36 117 -93 124 -26 4 -71 11 -100 17 -40 9 -62 8 -95 -2 -69 -22 -80 -36 -72 -97 7 -54 43 -158 69 -198 8 -12 20 -42 26 -66 6 -24 18 -49 26 -55 8 -6 21 -33 28 -60 20 -70 53 -154 69 -173 7 -9 18 -38 25 -64 7 -27 26 -77 42 -112 17 -35 30 -70 30 -77 0 -7 12 -38 26 -68 14 -30 37 -89 51 -130 13 -41 33 -88 43 -105 10 -16 25 -53 33 -82 9 -29 22 -67 31 -85 51 -113 84 -198 90 -230 4 -21 18 -50 31 -66 13 -16 27 -49 31 -73 4 -24 15 -63 25 -85 10 -23 30 -81 44 -130 14 -49 34 -100 45 -114 11 -14 24 -34 29 -45 46 -109 59 -149 87 -282 2 -13 17 -37 33 -55 17 -20 39 -66 55 -119 14 -48 32 -92 40 -98 8 -7 20 -37 26 -67 6 -30 18 -61 27 -69 8 -9 22 -41 30 -73 8 -31 23 -71 34 -88 10 -17 19 -40 19 -51 0 -11 11 -40 24 -65 13 -25 27 -60 31 -79 4 -19 18 -53 31 -76 13 -23 24 -52 24 -65 0 -13 10 -39 22 -58 12 -19 27 -44 33 -54 21 -39 64 -61 119 -61 46 1 57 5 88 35 20 20 41 54 48 78 7 23 17 42 21 42 5 0 16 26 25 58 9 31 22 64 30 72 7 9 20 42 28 74 9 33 22 66 30 75 8 9 20 39 27 66 7 28 20 61 30 74 10 12 21 39 25 60 3 20 14 48 25 63 10 15 30 56 43 90 13 35 45 117 71 183 26 66 54 140 63 165 8 25 25 56 38 70 13 14 27 41 30 60 4 19 12 46 19 60 7 14 25 63 40 110 15 47 35 99 45 115 10 17 27 60 38 97 12 37 36 100 55 140 19 40 42 100 52 133 9 33 23 71 30 85 30 60 65 141 65 151 0 7 13 37 29 68 15 31 31 67 36 81 4 14 20 42 36 62 19 24 29 48 29 71 0 36 39 152 65 190 8 12 26 62 40 111 14 48 37 109 50 134 14 26 25 50 25 55 0 4 14 37 30 72 17 35 30 69 30 75 0 6 14 36 30 67 17 31 30 64 30 74 0 10 14 52 30 94 17 42 30 83 30 93 0 9 9 33 19 53 11 20 26 58 34 86 8 28 22 64 31 80 8 17 24 64 35 106 11 42 27 86 35 99 8 13 21 51 29 84 8 33 22 72 30 85 9 13 21 47 28 74 6 28 18 57 25 65 7 8 18 38 25 65 7 28 23 69 35 92 12 24 25 62 29 85 4 24 13 50 21 58 7 9 21 45 30 80 9 36 22 68 30 73 7 4 16 23 20 42 8 46 21 52 50 24 13 -13 40 -37 60 -54 51 -42 334 -319 334 -327 0 -3 24 -31 53 -61 28 -30 63 -69 77 -86 14 -18 34 -42 46 -54 12 -12 29 -37 38 -54 9 -18 20 -33 24 -33 4 0 16 -14 26 -31 10 -18 25 -39 33 -48 26 -30 63 -86 81 -123 9 -21 22 -38 29 -38 6 0 16 -15 23 -34 6 -18 20 -42 30 -51 11 -10 25 -36 32 -57 6 -22 19 -43 29 -49 19 -10 44 -73 35 -88 -15 -24 -144 -33 -349 -25 -114 5 -221 6 -239 2 -18 -4 -161 -8 -318 -7 -157 0 -308 0 -337 -1 -43 0 -58 -5 -86 -30 -19 -16 -39 -42 -44 -57 -17 -46 -42 -164 -49 -225 -6 -54 -5 -58 24 -87 30 -31 30 -31 655 -31 343 0 760 3 926 7 295 6 303 7 311 27 9 26 -14 168 -33 198 -8 13 -17 42 -21 65 -6 38 -30 100 -57 143 -5 8 -18 34 -29 57 -10 23 -28 51 -38 61 -11 11 -23 34 -27 52 -4 17 -13 34 -20 37 -8 2 -21 27 -30 54 -9 27 -21 49 -26 49 -5 0 -15 12 -21 28 -15 33 -69 118 -98 151 -11 13 -20 30 -20 36 0 7 -10 23 -23 37 -13 14 -32 39 -43 55 -45 71 -78 118 -95 136 -10 12 -21 29 -25 39 -3 10 -9 18 -14 18 -5 0 -16 13 -25 29 -8 16 -23 32 -34 36 -10 3 -22 17 -25 30 -3 13 -15 26 -25 30 -10 3 -22 16 -25 28 -9 35 -320 347 -449 450 -16 12 -40 34 -55 50 -15 15 -32 27 -38 27 -6 0 -19 11 -28 25 -9 14 -23 25 -31 25 -7 0 -20 8 -27 19 -7 10 -32 28 -55 40 -24 12 -43 26 -43 32 0 5 -15 16 -34 24 -18 8 -36 21 -39 30 -6 15 -38 19 -67 8z"></path><path id="pMztExRQS" d="M2179 7135 c-3 -2 -19 -5 -37 -7 -32 -2 -32 -2 -10 -25 31 -34 58 -30 58 7 0 30 -2 34 -11 25z"></path><path id="pbCxDoI5o" d="M2420 7095 c-7 -8 -12 -26 -11 -40 1 -14 3 -36 4 -49 1 -16 7 -22 17 -18 23 9 39 35 35 57 -2 11 -4 30 -4 43 -1 25 -23 29 -41 7z"></path><path id="pOs1KEmoi" d="M3539 6914 c-18 -22 -14 -5765 4 -5804 16 -32 95 -74 182 -96 39 -9 79 -23 90 -30 11 -7 58 -19 105 -27 47 -9 104 -22 128 -31 23 -9 89 -21 145 -27 56 -7 107 -15 112 -19 18 -14 119 -28 245 -35 69 -3 204 -13 300 -21 140 -13 197 -14 285 -5 61 6 189 16 285 22 96 6 204 17 240 25 95 22 145 31 235 44 44 7 91 18 105 25 14 8 61 19 104 25 44 7 91 20 105 30 14 10 51 21 81 24 30 3 66 14 80 24 14 10 49 23 78 30 30 7 65 21 78 31 13 10 44 22 68 25 25 4 55 15 68 25 13 10 46 26 75 35 28 9 56 23 63 31 6 7 26 16 44 19 18 3 48 17 66 31 19 14 42 25 51 25 10 0 30 11 46 24 15 13 45 29 66 37 20 7 37 17 37 21 0 5 20 17 44 28 25 10 54 28 65 39 12 12 29 21 39 21 9 0 33 14 52 30 19 16 40 30 46 30 6 0 20 11 32 25 12 14 28 25 35 25 8 0 22 9 33 21 10 12 36 30 57 40 20 11 37 23 37 28 0 5 13 14 30 21 16 7 32 20 35 31 3 10 16 21 28 25 12 4 31 15 42 25 47 43 99 89 137 121 22 18 52 45 66 61 14 15 31 27 39 27 7 0 13 4 13 10 0 5 35 43 78 85 42 41 80 79 84 83 56 55 159 173 212 242 19 25 46 56 60 70 14 14 26 30 26 35 0 5 9 18 20 30 25 25 63 78 90 128 11 20 25 37 30 37 5 0 16 16 24 35 8 19 24 44 35 57 12 12 21 28 21 35 0 7 8 21 18 31 22 22 63 89 92 150 11 24 27 50 35 58 8 9 18 27 21 42 4 15 13 34 20 42 7 9 24 41 38 72 14 31 29 59 35 62 5 4 13 21 17 39 3 17 20 56 35 86 16 30 29 61 29 69 0 8 9 29 19 46 11 17 25 54 32 81 6 28 20 64 30 80 9 17 20 48 24 70 4 22 17 65 30 95 13 30 27 78 31 105 3 28 12 62 20 76 7 14 20 66 29 115 9 49 25 114 35 144 10 30 21 97 24 148 3 50 12 122 20 160 8 37 18 153 21 259 8 239 -11 857 -30 978 -8 50 -20 128 -25 175 -11 86 -28 149 -55 200 -8 16 -15 45 -15 64 0 58 -30 70 -175 74 -120 3 -120 3 -149 -45 -33 -55 -33 -62 -11 -198 11 -71 23 -110 41 -136 20 -29 24 -47 24 -105 0 -97 34 -303 56 -344 17 -32 19 -67 22 -402 3 -299 1 -385 -12 -460 -8 -51 -18 -118 -21 -149 -3 -32 -20 -84 -37 -120 -27 -56 -32 -79 -38 -184 -7 -113 -23 -186 -55 -245 -7 -14 -19 -54 -26 -90 -7 -36 -21 -75 -30 -88 -10 -13 -23 -49 -30 -80 -6 -30 -20 -67 -30 -81 -10 -14 -23 -46 -28 -70 -5 -25 -16 -48 -24 -53 -9 -4 -21 -31 -28 -59 -7 -28 -21 -55 -31 -60 -10 -6 -21 -27 -24 -51 -4 -22 -15 -48 -25 -57 -11 -8 -26 -37 -35 -63 -8 -26 -20 -48 -25 -48 -5 0 -18 -20 -29 -44 -10 -24 -23 -47 -30 -51 -6 -4 -18 -24 -27 -46 -8 -21 -19 -39 -23 -39 -4 0 -17 -19 -29 -42 -12 -24 -42 -70 -66 -103 -25 -33 -48 -67 -52 -75 -3 -8 -14 -24 -24 -35 -10 -11 -59 -69 -109 -130 -49 -60 -117 -138 -150 -173 -33 -35 -60 -67 -60 -72 0 -5 -8 -11 -18 -15 -11 -3 -24 -16 -30 -29 -6 -13 -20 -27 -31 -31 -11 -3 -23 -14 -26 -24 -3 -10 -17 -23 -30 -29 -14 -6 -25 -18 -25 -27 0 -8 -4 -15 -9 -15 -10 0 -158 -121 -201 -165 -14 -14 -31 -25 -37 -25 -6 0 -18 -11 -27 -25 -9 -14 -23 -25 -31 -25 -9 0 -23 -9 -33 -21 -9 -11 -34 -29 -54 -40 -21 -11 -38 -23 -38 -28 0 -5 -15 -14 -32 -22 -18 -7 -37 -19 -41 -26 -4 -7 -22 -20 -40 -29 -18 -9 -41 -24 -52 -34 -11 -10 -31 -21 -45 -25 -14 -4 -38 -18 -53 -31 -16 -13 -35 -24 -42 -24 -7 0 -27 -11 -43 -25 -17 -14 -36 -25 -45 -25 -8 0 -30 -11 -49 -24 -20 -13 -53 -29 -74 -36 -22 -7 -48 -20 -59 -30 -11 -10 -33 -20 -50 -24 -16 -4 -50 -17 -75 -30 -25 -12 -67 -29 -95 -36 -27 -7 -53 -17 -56 -22 -3 -5 -37 -17 -76 -27 -38 -10 -80 -25 -94 -34 -13 -8 -50 -20 -81 -26 -32 -6 -68 -17 -80 -25 -13 -8 -68 -22 -123 -32 -55 -9 -106 -21 -113 -27 -7 -5 -75 -18 -151 -28 -77 -9 -149 -23 -161 -29 -15 -8 -121 -16 -291 -23 -310 -12 -717 2 -808 27 -29 8 -97 20 -150 26 -53 6 -116 20 -141 30 -25 10 -83 24 -130 30 -47 6 -92 17 -100 24 -8 6 -32 20 -54 29 -32 15 -37 21 -31 40 3 12 5 72 4 132 -5 185 -4 2122 2 3805 3 877 2 1605 -3 1618 -7 21 -11 22 -147 22 -115 0 -141 -3 -152 -16z"></path></g></g></svg>